<svg xmlns="http://www.w3.org/2000/svg" x="0px" y="0px" width="16px" height="20px" viewBox="0 0 16 20" enable-background="new 0 0 16 20" xml:space="preserve">
<path fill="#FFFFFF" d="M16.097,5.831v12.751c0,0.232-0.084,0.434-0.251,0.602c-0.168,0.17-0.368,0.254-0.601,0.254H1.852
	c-0.231,0-0.433-0.084-0.601-0.254C1.083,19.016,1,18.814,1,18.582V5.87c0-0.259,0.083-0.473,0.251-0.642
	C1.419,5.06,1.62,4.976,1.852,4.976H4.02V4.587c0-1.269,0.445-2.352,1.335-3.246C6.245,0.447,7.296,0,8.51,0h0.077
	c1.213,0,2.265,0.447,3.155,1.341s1.336,1.977,1.336,3.246v0.389h2.167c0.232,0,0.426,0.078,0.581,0.233
	C16.007,5.391,16.097,5.598,16.097,5.831L16.097,5.831z M14.355,6.686h-1.277v1.478c0,0.259-0.084,0.473-0.252,0.641
	c-0.168,0.169-0.368,0.253-0.6,0.253c-0.259,0-0.472-0.084-0.64-0.253c-0.168-0.168-0.251-0.382-0.251-0.641V6.686H5.761v1.478
	c0,0.259-0.084,0.473-0.251,0.641C5.342,8.974,5.129,9.058,4.871,9.058c-0.232,0-0.433-0.084-0.601-0.253
	C4.103,8.637,4.02,8.423,4.02,8.164V6.686H2.742v11.041h11.613V6.686z M5.761,4.976h5.575V4.587c0-0.803-0.271-1.483-0.813-2.041
	C9.98,1.989,9.336,1.71,8.587,1.71H8.51c-0.749,0-1.394,0.279-1.936,0.836C6.032,3.104,5.761,3.784,5.761,4.587V4.976z"></path>
</svg>